<svg xmlns="http://www.w3.org/2000/svg" width="1089" height="963" viewBox="0 0 1089 963">
<g>
<path d="M 678.27 890.35 C673.75,892.91 669.59,895.00 669.02,895.00 C668.33,895.00 668.00,823.69 668.00,673.10 L 668.00 451.19 L 676.04 446.35 C687.58,439.39 699.47,432.60 707.25,428.52 C710.96,426.57 716.46,423.40 719.45,421.49 C722.45,419.57 725.24,418.00 725.64,418.00 C726.05,418.00 729.33,416.26 732.94,414.12 C736.55,411.99 746.92,406.07 756.00,400.96 C765.08,395.85 776.10,389.56 780.50,386.98 C784.90,384.39 794.80,378.76 802.50,374.47 C810.20,370.18 823.70,362.63 832.50,357.70 C841.30,352.77 854.92,345.21 862.76,340.90 C870.61,336.59 880.28,331.09 884.26,328.68 C888.24,326.26 896.90,321.35 903.50,317.76 C910.10,314.17 918.88,309.31 923.00,306.97 C927.12,304.63 933.88,300.84 938.00,298.55 C942.12,296.26 952.83,290.25 961.78,285.19 C970.74,280.14 978.25,276.00 978.49,276.00 C978.72,276.00 981.20,274.65 984.00,273.00 C986.80,271.35 989.30,270.00 989.57,270.00 C989.83,270.00 989.77,296.66 989.43,329.25 C989.08,361.84 989.26,416.69 989.82,451.15 C990.47,491.87 990.49,516.55 989.86,521.63 C988.93,529.12 984.31,548.43 981.98,554.55 C977.11,567.35 965.02,585.13 953.21,596.86 C941.95,608.04 932.95,613.87 892.00,636.50 C886.22,639.69 874.30,646.44 865.50,651.50 C856.70,656.55 845.22,663.08 840.00,666.01 C834.78,668.94 828.47,672.56 826.00,674.07 C823.53,675.58 817.67,678.94 813.00,681.54 C802.45,687.42 792.71,692.95 772.64,704.48 L 757.00 713.45 L 757.00 779.07 C757.00,840.33 756.88,844.79 755.25,846.17 C754.29,846.99 748.78,850.28 743.00,853.48 C737.22,856.69 730.47,860.52 728.00,862.00 C723.11,864.93 717.30,868.23 709.50,872.53 C706.75,874.04 700.45,877.62 695.50,880.48 C690.55,883.35 682.80,887.79 678.27,890.35 ZM 639.97 534.25 C639.98,580.31 639.66,617.97 639.25,617.93 C638.84,617.89 636.47,616.61 634.00,615.09 C631.53,613.56 621.17,607.90 611.00,602.51 C570.87,581.25 562.84,576.93 558.80,574.37 C553.99,571.34 545.00,567.02 543.46,567.01 C542.89,567.00 541.17,569.71 539.65,573.02 C533.85,585.65 519.31,597.52 503.27,602.72 C489.43,607.21 464.61,605.56 455.44,599.55 L 452.94 597.91 L 453.50 583.71 C453.80,575.89 454.50,555.47 455.04,538.33 C456.10,504.54 456.65,498.00 458.44,498.00 C459.08,498.00 472.10,503.85 487.39,511.00 C502.67,518.15 515.58,524.00 516.09,524.00 C516.61,524.00 517.00,515.84 517.00,505.05 L 517.00 486.09 L 506.75 480.71 C498.22,476.23 491.62,472.41 473.20,461.29 C471.30,460.14 472.69,356.00 474.60,356.00 C475.31,356.00 480.97,358.98 487.19,362.63 C493.41,366.27 503.45,372.06 509.50,375.48 C537.80,391.51 571.32,410.75 613.22,435.02 L 639.93 450.50 ZM 639.55 730.28 C639.81,730.95 639.90,768.43 639.76,813.57 L 639.50 895.63 L 633.50 892.18 C630.20,890.28 621.20,885.03 613.50,880.52 C605.80,876.00 595.90,870.36 591.50,867.97 C587.10,865.58 579.22,861.09 574.00,858.00 C568.78,854.90 559.78,849.75 554.00,846.54 C548.22,843.34 536.08,836.36 527.00,831.02 C517.92,825.69 503.52,817.38 495.00,812.56 C486.48,807.73 479.05,803.22 478.50,802.54 C476.95,800.63 479.76,642.91 481.37,641.29 C481.74,640.93 484.03,641.59 486.45,642.76 C496.20,647.50 572.21,690.36 594.50,703.69 C597.25,705.33 604.22,709.30 610.00,712.50 C615.78,715.70 623.20,720.06 626.50,722.18 C629.80,724.30 633.98,726.72 635.79,727.55 C637.60,728.38 639.30,729.61 639.55,730.28 ZM 757.00 557.69 C757.00,589.76 757.28,616.00 757.63,616.00 C757.97,616.00 762.02,613.75 766.63,611.00 C784.25,600.47 791.83,596.13 801.50,590.98 C807.00,588.06 814.42,583.88 818.00,581.69 C824.42,577.76 834.65,571.97 863.00,556.21 C870.97,551.78 881.55,545.53 886.50,542.33 C894.10,537.41 895.89,535.72 898.00,531.50 L 900.50 526.50 L 900.79 472.75 C900.95,443.19 900.73,419.01 900.29,419.02 C899.86,419.03 894.10,422.14 887.50,425.93 C874.23,433.56 853.70,445.17 847.50,448.56 C829.88,458.19 822.49,462.29 816.00,466.01 C811.88,468.37 804.67,472.41 800.00,474.99 C795.33,477.58 786.55,482.52 780.50,485.98 C774.45,489.45 766.69,493.88 763.25,495.83 L 757.00 499.37 ZM 291.63 580.10 C291.70,580.51 291.78,580.88 291.85,581.22 C292.03,582.06 292.16,582.68 291.92,583.08 C291.26,584.21 287.74,583.65 274.42,581.54 C272.49,581.23 270.36,580.90 268.00,580.53 C256.73,578.76 238.05,576.08 226.50,574.58 C214.95,573.08 205.14,571.50 204.69,571.07 C203.05,569.48 197.10,495.56 198.50,494.16 C198.76,493.90 206.07,494.43 214.74,495.34 C223.41,496.24 240.18,497.88 252.00,498.97 C275.00,501.10 279.12,501.43 279.85,503.18 C280.01,503.56 280.01,504.01 280.01,504.56 C280.01,504.64 280.01,504.71 280.01,504.80 C280.02,506.28 280.94,512.45 282.06,518.50 C284.66,532.64 285.49,537.78 288.51,558.85 C289.89,568.39 291.29,577.95 291.63,580.10 ZM 468.86 721.73 C468.79,737.00 468.45,760.37 468.11,773.67 L 467.50 797.83 L 446.00 785.26 C434.17,778.35 416.85,768.15 407.50,762.60 L 390.50 752.50 L 390.20 745.53 C389.15,721.28 404.29,697.54 425.09,690.82 C435.80,687.36 454.12,688.29 466.25,692.90 L 469.00 693.95 ZM 362.00 701.57 C362.00,722.71 361.65,740.00 361.23,740.00 C360.46,740.00 355.13,736.99 317.50,715.33 L 298.50 704.39 L 298.41 666.15 C298.37,645.12 298.67,627.70 299.09,627.44 C300.03,626.86 353.58,656.87 359.55,661.32 L 362.00 663.15 ZM 422.80 649.60 C419.50,651.31 410.93,651.31 405.47,649.60 C390.89,645.04 376.21,627.81 370.43,608.50 C363.21,584.38 368.12,564.75 382.55,559.98 C398.26,554.80 421.43,575.16 430.89,602.47 C434.01,611.47 434.37,613.58 434.35,623.00 C434.34,631.65 433.95,634.38 432.12,638.49 C429.61,644.13 426.75,647.54 422.80,649.60 ZM 337.34 501.84 C336.89,520.36 336.33,529.00 335.59,529.00 C333.52,529.01 319.65,513.47 313.72,504.50 C306.04,492.90 292.09,464.20 288.20,452.00 C284.16,439.32 282.68,422.73 284.55,411.06 C285.28,406.52 286.14,402.53 286.47,402.20 C286.79,401.87 288.29,402.32 289.78,403.19 C291.28,404.05 300.60,409.17 310.50,414.55 L 333.24 426.92 L 337.98 429.50 L 337.99 452.09 C338.00,464.51 337.70,486.90 337.34,501.84 ZM 217.00 370.96 C207.71,373.84 206.80,373.66 207.50,369.13 C207.73,367.68 208.64,358.40 209.53,348.50 C212.17,319.03 213.88,304.72 214.86,303.74 C215.37,303.23 223.82,301.09 233.64,298.99 C243.46,296.88 257.11,293.78 263.97,292.08 C270.84,290.39 277.48,289.00 278.74,289.00 C280.85,289.00 280.98,289.32 280.45,293.25 C278.22,309.76 271.82,326.90 263.57,338.46 C255.98,349.09 245.33,358.17 233.73,363.90 C228.10,366.68 220.57,369.86 217.00,370.96 ZM 594.30 681.42 C590.95,682.29 585.58,682.94 582.36,682.87 C575.61,682.72 565.26,680.66 563.77,679.17 C563.09,678.49 563.30,666.39 564.42,641.83 C566.69,592.05 566.92,589.00 568.48,589.00 C570.82,589.00 581.36,597.49 588.00,604.72 C599.92,617.70 609.42,635.60 614.10,653.90 C617.01,665.26 616.73,667.62 611.96,672.16 C607.00,676.87 602.25,679.36 594.30,681.42 ZM 440.00 543.64 C440.00,544.52 437.11,543.19 413.99,531.69 C400.51,524.99 384.40,517.10 378.19,514.16 C371.98,511.22 367.03,508.43 367.20,507.96 C368.17,505.20 400.60,443.05 401.08,443.03 C401.40,443.01 404.86,451.44 408.77,461.75 C412.68,472.06 418.00,485.90 420.58,492.50 C427.84,511.06 440.00,543.08 440.00,543.64 ZM 297.69 209.00 C292.11,211.73 289.47,212.40 283.19,212.66 C260.08,213.62 249.01,197.90 259.25,178.69 C269.43,159.58 299.82,150.59 313.79,162.55 C321.37,169.04 322.92,179.34 317.88,189.75 C314.59,196.54 305.59,205.12 297.69,209.00 ZM 150.54 453.12 C145.74,455.30 135.28,455.55 129.84,453.61 C123.65,451.39 117.44,447.27 114.50,443.41 C109.61,437.00 105.66,426.27 105.70,419.50 C105.80,401.74 119.15,392.41 136.65,397.89 C151.70,402.60 160.88,414.27 161.79,429.85 C162.49,442.11 159.04,449.26 150.54,453.12 ZM 408.77 398.30 C407.43,400.13 401.56,401.35 399.00,400.34 C390.06,396.79 368.50,387.23 364.88,385.22 C353.94,379.12 347.82,360.60 352.99,349.22 C355.25,344.24 360.89,341.06 367.52,341.02 C377.69,340.97 393.06,347.83 399.50,355.30 C410.47,368.03 415.12,389.61 408.77,398.30 ZM 92.72 192.01 C90.84,196.68 88.44,202.17 87.40,204.19 L 85.50 207.86 L 72.00 200.91 C52.95,191.11 51.00,189.86 51.00,187.48 C51.00,184.71 66.63,153.00 67.99,153.00 C68.59,153.00 70.07,153.62 71.29,154.37 C72.50,155.12 80.09,159.17 88.14,163.37 L 102.77 170.99 L 99.46 177.25 C97.64,180.69 94.60,187.33 92.72,192.01 ZM 186.00 259.16 C186.00,263.52 185.05,265.72 183.74,264.40 C183.44,264.11 176.51,262.33 168.35,260.46 C152.34,256.80 135.93,252.25 134.80,251.17 C133.63,250.05 144.64,228.53 148.45,224.48 L 152.01 220.71 L 159.51 221.34 C171.36,222.34 177.89,226.04 182.04,234.12 C183.95,237.83 186.00,250.78 186.00,259.16 Z" fill="rgb(59,72,78)"/>
<path d="M 674.57 415.24 C665.26,420.67 656.48,425.33 655.07,425.58 C652.55,426.02 637.27,417.79 605.31,398.76 C593.11,391.50 581.13,384.67 573.00,380.33 C569.97,378.72 558.50,372.20 547.50,365.85 C536.50,359.51 520.75,350.56 512.50,345.98 C504.25,341.39 494.37,335.64 490.55,333.20 L 483.59 328.75 L 485.92 326.86 C487.21,325.82 493.04,322.43 498.88,319.33 C504.72,316.22 520.08,307.60 533.00,300.16 C564.55,282.01 576.11,275.47 584.82,270.83 C588.85,268.69 593.80,265.90 595.82,264.63 C597.85,263.36 604.67,259.48 611.00,255.99 C617.33,252.51 623.88,248.90 625.56,247.96 C627.24,247.02 630.08,245.49 631.88,244.56 C635.67,242.60 635.13,241.32 629.18,238.20 C627.16,237.14 623.70,235.23 621.50,233.97 C619.30,232.70 614.58,230.01 611.00,227.99 C600.00,221.77 598.01,220.52 598.01,219.86 C598.00,219.17 606.20,214.44 636.00,197.96 C646.17,192.34 658.23,185.54 662.78,182.87 C667.34,180.19 671.25,178.00 671.49,178.00 C671.72,178.00 674.29,176.59 677.21,174.86 C680.12,173.14 691.05,167.01 701.50,161.24 C711.95,155.48 725.45,147.96 731.50,144.53 C748.72,134.79 754.21,131.76 758.22,129.80 L 761.94 127.98 L 768.72 132.16 C774.97,136.02 788.05,143.56 813.50,157.99 C819.00,161.11 831.15,168.08 840.50,173.48 C864.95,187.62 931.34,225.69 939.00,229.96 C960.53,241.99 970.28,248.05 969.46,248.88 C968.63,249.70 961.62,253.71 921.00,276.54 C911.92,281.64 901.58,287.51 898.00,289.58 C894.42,291.65 875.08,302.54 855.00,313.77 C834.92,325.00 814.45,336.56 809.50,339.45 C804.55,342.33 794.88,347.76 788.00,351.50 C781.12,355.24 765.83,363.78 754.00,370.48 C733.05,382.35 709.62,395.45 697.50,402.07 C694.20,403.88 683.88,409.80 674.57,415.24 ZM 679.35 139.10 C668.82,145.10 659.59,149.99 658.85,149.98 C657.29,149.95 654.32,148.29 624.50,130.71 C602.01,117.46 595.27,113.25 594.45,111.91 C594.19,111.50 596.35,109.83 599.24,108.20 C628.50,91.72 643.90,82.89 651.29,78.35 L 660.08 72.94 L 674.29 81.11 C692.81,91.76 699.71,95.77 704.04,98.37 C705.99,99.54 711.27,102.67 715.78,105.33 C724.73,110.61 725.99,111.82 723.89,113.13 C718.65,116.42 695.43,129.95 679.35,139.10 ZM 412.35 277.31 C405.12,281.54 399.03,285.00 398.82,285.00 C398.62,285.00 397.49,284.33 396.32,283.51 C395.15,282.69 384.58,276.58 372.84,269.92 C361.10,263.27 350.07,256.74 348.32,255.41 C346.57,254.09 344.89,253.00 344.60,253.00 C343.60,253.00 335.00,246.62 335.00,245.88 C335.00,244.40 397.06,208.00 399.58,208.00 C400.40,208.00 407.02,211.44 414.29,215.65 C421.56,219.86 432.11,225.90 437.75,229.08 C443.38,232.26 449.23,235.70 450.75,236.72 C452.26,237.75 455.15,239.43 457.17,240.47 C459.18,241.51 461.85,243.13 463.09,244.07 L 465.35 245.78 L 460.43 248.79 C446.76,257.14 441.73,260.13 412.35,277.31 ZM 541.89 200.88 C536.06,204.24 530.88,206.99 530.39,206.98 C529.90,206.97 527.70,205.89 525.50,204.57 C523.30,203.26 516.10,199.06 509.50,195.25 C502.90,191.45 493.23,185.62 488.00,182.31 C482.77,179.00 476.25,175.06 473.50,173.54 C464.97,168.85 464.50,168.10 468.75,165.94 C470.26,165.17 473.08,163.58 475.00,162.40 C476.92,161.23 484.58,156.68 492.00,152.31 C499.42,147.93 510.95,141.12 517.60,137.17 C524.26,133.23 530.30,130.00 531.02,130.00 C532.44,130.00 540.69,134.65 563.00,148.03 C570.97,152.81 581.66,159.07 586.75,161.93 C591.84,164.79 596.00,167.49 596.00,167.93 C596.00,168.95 590.47,172.62 581.50,177.53 C577.65,179.65 571.58,183.25 568.00,185.54 C564.42,187.84 559.47,190.85 557.00,192.23 C554.53,193.62 547.73,197.51 541.89,200.88 ZM 729.96 292.60 L 733.41 294.95 L 736.96 292.84 C738.91,291.68 745.90,287.68 752.50,283.97 C785.96,265.13 797.36,258.41 797.39,257.50 C797.41,256.95 792.04,253.53 785.46,249.90 C778.88,246.28 764.87,238.29 754.33,232.16 L 735.16 221.02 L 719.33 230.18 C710.62,235.23 696.53,243.29 688.00,248.10 C679.47,252.91 672.50,257.44 672.50,258.17 C672.50,258.90 679.73,263.55 688.58,268.50 C708.34,279.56 725.36,289.48 729.96,292.60 ZM 551.40 267.56 C540.90,273.82 531.65,279.20 530.86,279.50 C529.41,280.05 522.00,276.56 516.87,272.91 C515.40,271.86 513.91,271.00 513.57,271.00 C513.23,271.00 511.28,269.93 509.23,268.63 C507.18,267.33 501.15,263.70 495.83,260.58 C490.52,257.46 485.67,254.30 485.06,253.57 C484.17,252.50 486.65,250.75 497.22,244.93 C504.53,240.91 514.45,235.23 519.29,232.31 C524.12,229.39 528.78,227.00 529.64,227.00 C531.37,227.00 568.89,248.22 572.33,251.16 C574.49,252.99 574.49,253.00 572.50,254.58 C571.40,255.46 561.91,261.30 551.40,267.56 ZM 595.00 333.87 C599.67,336.69 603.82,339.00 604.21,339.00 C604.61,339.00 610.23,335.93 616.71,332.18 C623.20,328.43 632.33,323.18 637.00,320.51 C649.13,313.59 650.00,313.04 650.00,312.22 C650.00,311.82 644.49,308.38 637.75,304.57 C631.01,300.76 621.45,295.25 616.51,292.32 C611.56,289.39 606.82,287.00 605.96,287.00 C605.11,287.00 600.84,289.17 596.46,291.82 C592.08,294.48 582.88,299.69 576.00,303.40 C569.12,307.11 562.60,310.81 561.50,311.63 C559.52,313.08 559.53,313.12 562.00,315.03 C563.38,316.09 564.78,316.97 565.13,316.98 C565.93,317.01 583.97,327.20 595.00,333.87 ZM 436.00 117.41 C436.00,119.85 435.73,119.99 431.25,119.88 C420.32,119.61 404.95,115.21 394.00,109.21 C382.13,102.71 371.21,88.85 369.62,78.27 C369.04,74.44 369.20,74.00 371.24,73.57 C374.17,72.95 412.28,70.09 422.00,69.76 L 429.50 69.50 L 430.25 74.50 C432.89,91.96 436.00,115.21 436.00,117.41 ZM 224.80 116.58 C224.11,116.85 223.47,117.11 222.88,117.35 C220.10,118.48 218.38,119.17 217.35,118.61 C215.69,117.70 215.84,113.49 216.23,102.47 C216.28,101.02 216.33,99.45 216.39,97.75 C216.78,86.07 217.45,76.15 217.90,75.70 C218.71,74.89 233.58,71.21 252.97,67.03 C258.74,65.78 264.02,64.54 264.72,64.28 C266.42,63.63 266.35,66.21 264.48,73.54 C259.61,92.65 244.77,108.75 224.80,116.58 Z" fill="rgb(140,205,178)"/>
</g>
</svg>